<svg width="16px" height="16px" version="1.1" viewBox="0.0 0.0 4096.0 4096.0" fill="none" stroke="none" stroke-linecap="square" stroke-miterlimit="10" xmlns:xlink="http://www.w3.org/1999/xlink" xmlns="http://www.w3.org/2000/svg"><clipPath id="p.0"><path d="m0 0l4096.0 0l0 4096.0l-4096.0 0l0 -4096.0z" clip-rule="nonzero"/></clipPath><g clip-path="url(#p.0)"><path fill="#000000" fill-opacity="0.0" d="m0 0l4096.0 0l0 4096.0l-4096.0 0z" fill-rule="evenodd"/><path fill="#006699" d="m5.03937 678.0136l0 0c0 -376.09167 304.88257 -680.97424 680.97424 -680.97424l2723.9727 0l0 0c180.60571 0 353.8142 71.7453 481.52148 199.45274c127.70752 127.70744 199.45288 300.9159 199.45288 481.52148l0 2723.8152c0 376.0918 -304.88257 680.97437 -680.97437 680.97437l-2723.9727 0c-376.09167 0 -680.97424 -304.88257 -680.97424 -680.97437z" fill-rule="evenodd"/><path stroke="#ffffff" stroke-width="1.0" stroke-linejoin="round" stroke-linecap="butt" d="m5.03937 678.0136l0 0c0 -376.09167 304.88257 -680.97424 680.97424 -680.97424l2723.9727 0l0 0c180.60571 0 353.8142 71.7453 481.52148 199.45274c127.70752 127.70744 199.45288 300.9159 199.45288 481.52148l0 2723.8152c0 376.0918 -304.88257 680.97437 -680.97437 680.97437l-2723.9727 0c-376.09167 0 -680.97424 -304.88257 -680.97424 -680.97437z" fill-rule="evenodd"/><path fill="#ffffff" d="m1715.6285 1135.8429l0 0c0 -179.94757 148.80981 -325.82397 332.37585 -325.82397l0 0c88.15161 0 172.69287 34.32782 235.02539 95.43164c62.33252 61.10388 97.35083 143.97852 97.35083 230.39233l0 0c0 179.94763 -148.80981 325.8241 -332.37622 325.8241l0 0c-183.56604 0 -332.37585 -145.87646 -332.37585 -325.8241z" fill-rule="evenodd"/><path stroke="#000000" stroke-width="1.0" stroke-linejoin="round" stroke-linecap="butt" d="m1715.6285 1135.8429l0 0c0 -179.94757 148.80981 -325.82397 332.37585 -325.82397l0 0c88.15161 0 172.69287 34.32782 235.02539 95.43164c62.33252 61.10388 97.35083 143.97852 97.35083 230.39233l0 0c0 179.94763 -148.80981 325.8241 -332.37622 325.8241l0 0c-183.56604 0 -332.37585 -145.87646 -332.37585 -325.8241z" fill-rule="evenodd"/><path fill="#ffffff" d="m1715.6285 1722.0251l664.7521 0l0 1563.9553l-664.7521 0z" fill-rule="evenodd"/><path stroke="#000000" stroke-width="1.0" stroke-linejoin="round" stroke-linecap="butt" d="m1715.6285 1722.0251l664.7521 0l0 1563.9553l-664.7521 0z" fill-rule="evenodd"/><path fill="#ffffff" d="m1449.7277 3188.7751l0 0c0 -10.737061 8.704346 -19.441406 19.441528 -19.441406l1157.6707 0c5.15625 0 10.101074 2.0483398 13.74707 5.694336c3.645996 3.645996 5.694336 8.591064 5.694336 13.74707l0 77.76367c0 10.737305 -8.704102 19.44165 -19.441406 19.44165l-1157.6707 0l0 0c-10.737183 0 -19.441528 -8.704346 -19.441528 -19.44165z" fill-rule="evenodd"/><path stroke="#ffffff" stroke-width="1.0" stroke-linejoin="round" stroke-linecap="butt" d="m1449.7277 3188.7751l0 0c0 -10.737061 8.704346 -19.441406 19.441528 -19.441406l1157.6707 0c5.15625 0 10.101074 2.0483398 13.74707 5.694336c3.645996 3.645996 5.694336 8.591064 5.694336 13.74707l0 77.76367c0 10.737305 -8.704102 19.44165 -19.441406 19.44165l-1157.6707 0l0 0c-10.737183 0 -19.441528 -8.704346 -19.441528 -19.44165z" fill-rule="evenodd"/><path fill="#ffffff" d="m1449.7168 1740.1277l0 0c0 -9.997314 8.10437 -18.101685 18.101685 -18.101685l894.44934 0c4.8010254 0 9.405273 1.9071045 12.799805 5.301758c3.3947754 3.3947754 5.302002 7.9990234 5.302002 12.799927l0 72.40454c0 9.997314 -8.104492 18.101685 -18.101807 18.101685l-894.44934 0c-9.997314 0 -18.101685 -8.10437 -18.101685 -18.101685z" fill-rule="evenodd"/><path stroke="#ffffff" stroke-width="1.0" stroke-linejoin="round" stroke-linecap="butt" d="m1449.7168 1740.1277l0 0c0 -9.997314 8.10437 -18.101685 18.101685 -18.101685l894.44934 0c4.8010254 0 9.405273 1.9071045 12.799805 5.301758c3.3947754 3.3947754 5.302002 7.9990234 5.302002 12.799927l0 72.40454c0 9.997314 -8.104492 18.101685 -18.101807 18.101685l-894.44934 0c-9.997314 0 -18.101685 -8.10437 -18.101685 -18.101685z" fill-rule="evenodd"/></g></svg>